<mxfile host="Electron" modified="2024-10-14T18:12:38.287Z" agent="Mozilla/5.0 (Windows NT 10.0; Win64; x64) AppleWebKit/537.36 (KHTML, like Gecko) draw.io/22.0.3 Chrome/114.0.5735.289 Electron/25.8.4 Safari/537.36" etag="sJBPPKIqYTETWZdR6D2Q" version="22.0.3" type="device">
  <diagram id="C5RBs43oDa-KdzZeNtuy" name="Page-1">
    <mxGraphModel dx="1235" dy="1909" grid="1" gridSize="10" guides="1" tooltips="1" connect="1" arrows="1" fold="1" page="1" pageScale="1" pageWidth="827" pageHeight="1169" math="0" shadow="0">
      <root>
        <mxCell id="WIyWlLk6GJQsqaUBKTNV-0" />
        <mxCell id="WIyWlLk6GJQsqaUBKTNV-1" parent="WIyWlLk6GJQsqaUBKTNV-0" />
        <mxCell id="i3I4o2aXOtXIeuuRk1Ph-45" value="註冊介面" style="swimlane;fontStyle=1;align=center;verticalAlign=top;childLayout=stackLayout;horizontal=1;startSize=26;horizontalStack=0;resizeParent=1;resizeParentMax=0;resizeLast=0;collapsible=1;marginBottom=0;whiteSpace=wrap;html=1;" vertex="1" parent="WIyWlLk6GJQsqaUBKTNV-1">
          <mxGeometry x="50" y="-490" width="240" height="112" as="geometry" />
        </mxCell>
        <mxCell id="i3I4o2aXOtXIeuuRk1Ph-49" value="　" style="text;strokeColor=none;fillColor=none;align=left;verticalAlign=top;spacingLeft=4;spacingRight=4;overflow=hidden;rotatable=0;points=[[0,0.5],[1,0.5]];portConstraint=eastwest;whiteSpace=wrap;html=1;" vertex="1" parent="i3I4o2aXOtXIeuuRk1Ph-45">
          <mxGeometry y="26" width="240" height="26" as="geometry" />
        </mxCell>
        <mxCell id="i3I4o2aXOtXIeuuRk1Ph-47" value="" style="line;strokeWidth=1;fillColor=none;align=left;verticalAlign=middle;spacingTop=-1;spacingLeft=3;spacingRight=3;rotatable=0;labelPosition=right;points=[];portConstraint=eastwest;strokeColor=inherit;" vertex="1" parent="i3I4o2aXOtXIeuuRk1Ph-45">
          <mxGeometry y="52" width="240" height="8" as="geometry" />
        </mxCell>
        <mxCell id="i3I4o2aXOtXIeuuRk1Ph-48" value="+ClickRegisterButton()" style="text;strokeColor=none;fillColor=none;align=left;verticalAlign=top;spacingLeft=4;spacingRight=4;overflow=hidden;rotatable=0;points=[[0,0.5],[1,0.5]];portConstraint=eastwest;whiteSpace=wrap;html=1;" vertex="1" parent="i3I4o2aXOtXIeuuRk1Ph-45">
          <mxGeometry y="60" width="240" height="26" as="geometry" />
        </mxCell>
        <mxCell id="i3I4o2aXOtXIeuuRk1Ph-46" value="+Register(account,&lt;span style=&quot;font-size: 11px; text-align: center; background-color: initial;&quot;&gt;password,name,Email)&lt;/span&gt;" style="text;strokeColor=none;fillColor=none;align=left;verticalAlign=top;spacingLeft=4;spacingRight=4;overflow=hidden;rotatable=0;points=[[0,0.5],[1,0.5]];portConstraint=eastwest;whiteSpace=wrap;html=1;" vertex="1" parent="i3I4o2aXOtXIeuuRk1Ph-45">
          <mxGeometry y="86" width="240" height="26" as="geometry" />
        </mxCell>
        <mxCell id="i3I4o2aXOtXIeuuRk1Ph-142" style="edgeStyle=orthogonalEdgeStyle;rounded=0;orthogonalLoop=1;jettySize=auto;html=1;" edge="1" parent="WIyWlLk6GJQsqaUBKTNV-1" source="i3I4o2aXOtXIeuuRk1Ph-50" target="i3I4o2aXOtXIeuuRk1Ph-55">
          <mxGeometry relative="1" as="geometry">
            <Array as="points">
              <mxPoint x="1070" y="-720" />
              <mxPoint x="1070" y="-787" />
            </Array>
          </mxGeometry>
        </mxCell>
        <mxCell id="i3I4o2aXOtXIeuuRk1Ph-143" style="edgeStyle=orthogonalEdgeStyle;rounded=0;orthogonalLoop=1;jettySize=auto;html=1;" edge="1" parent="WIyWlLk6GJQsqaUBKTNV-1" source="i3I4o2aXOtXIeuuRk1Ph-50" target="i3I4o2aXOtXIeuuRk1Ph-65">
          <mxGeometry relative="1" as="geometry" />
        </mxCell>
        <mxCell id="i3I4o2aXOtXIeuuRk1Ph-144" style="edgeStyle=orthogonalEdgeStyle;rounded=0;orthogonalLoop=1;jettySize=auto;html=1;" edge="1" parent="WIyWlLk6GJQsqaUBKTNV-1" source="i3I4o2aXOtXIeuuRk1Ph-50" target="i3I4o2aXOtXIeuuRk1Ph-60">
          <mxGeometry relative="1" as="geometry">
            <Array as="points">
              <mxPoint x="1070" y="-630" />
              <mxPoint x="1070" y="-562" />
            </Array>
          </mxGeometry>
        </mxCell>
        <mxCell id="i3I4o2aXOtXIeuuRk1Ph-145" style="edgeStyle=orthogonalEdgeStyle;rounded=0;orthogonalLoop=1;jettySize=auto;html=1;" edge="1" parent="WIyWlLk6GJQsqaUBKTNV-1" source="i3I4o2aXOtXIeuuRk1Ph-50" target="i3I4o2aXOtXIeuuRk1Ph-108">
          <mxGeometry relative="1" as="geometry">
            <Array as="points">
              <mxPoint x="800" y="-547" />
              <mxPoint x="718" y="-547" />
            </Array>
          </mxGeometry>
        </mxCell>
        <mxCell id="i3I4o2aXOtXIeuuRk1Ph-146" style="edgeStyle=orthogonalEdgeStyle;rounded=0;orthogonalLoop=1;jettySize=auto;html=1;" edge="1" parent="WIyWlLk6GJQsqaUBKTNV-1" source="i3I4o2aXOtXIeuuRk1Ph-50" target="i3I4o2aXOtXIeuuRk1Ph-123">
          <mxGeometry relative="1" as="geometry">
            <Array as="points">
              <mxPoint x="860" y="-549" />
              <mxPoint x="973" y="-549" />
            </Array>
          </mxGeometry>
        </mxCell>
        <mxCell id="i3I4o2aXOtXIeuuRk1Ph-50" value="登入介面" style="swimlane;fontStyle=1;align=center;verticalAlign=top;childLayout=stackLayout;horizontal=1;startSize=26;horizontalStack=0;resizeParent=1;resizeParentMax=0;resizeLast=0;collapsible=1;marginBottom=0;whiteSpace=wrap;html=1;" vertex="1" parent="WIyWlLk6GJQsqaUBKTNV-1">
          <mxGeometry x="750" y="-730" width="160" height="112" as="geometry" />
        </mxCell>
        <mxCell id="i3I4o2aXOtXIeuuRk1Ph-51" value="　" style="text;strokeColor=none;fillColor=none;align=left;verticalAlign=top;spacingLeft=4;spacingRight=4;overflow=hidden;rotatable=0;points=[[0,0.5],[1,0.5]];portConstraint=eastwest;whiteSpace=wrap;html=1;" vertex="1" parent="i3I4o2aXOtXIeuuRk1Ph-50">
          <mxGeometry y="26" width="160" height="26" as="geometry" />
        </mxCell>
        <mxCell id="i3I4o2aXOtXIeuuRk1Ph-52" value="" style="line;strokeWidth=1;fillColor=none;align=left;verticalAlign=middle;spacingTop=-1;spacingLeft=3;spacingRight=3;rotatable=0;labelPosition=right;points=[];portConstraint=eastwest;strokeColor=inherit;" vertex="1" parent="i3I4o2aXOtXIeuuRk1Ph-50">
          <mxGeometry y="52" width="160" height="8" as="geometry" />
        </mxCell>
        <mxCell id="i3I4o2aXOtXIeuuRk1Ph-53" value="＋ClickLoginButton()" style="text;strokeColor=none;fillColor=none;align=left;verticalAlign=top;spacingLeft=4;spacingRight=4;overflow=hidden;rotatable=0;points=[[0,0.5],[1,0.5]];portConstraint=eastwest;whiteSpace=wrap;html=1;" vertex="1" parent="i3I4o2aXOtXIeuuRk1Ph-50">
          <mxGeometry y="60" width="160" height="26" as="geometry" />
        </mxCell>
        <mxCell id="i3I4o2aXOtXIeuuRk1Ph-54" value="＋Login(account,&lt;span style=&quot;font-size: 11px; text-align: center; background-color: initial;&quot;&gt;password)&lt;/span&gt;" style="text;strokeColor=none;fillColor=none;align=left;verticalAlign=top;spacingLeft=4;spacingRight=4;overflow=hidden;rotatable=0;points=[[0,0.5],[1,0.5]];portConstraint=eastwest;whiteSpace=wrap;html=1;" vertex="1" parent="i3I4o2aXOtXIeuuRk1Ph-50">
          <mxGeometry y="86" width="160" height="26" as="geometry" />
        </mxCell>
        <mxCell id="i3I4o2aXOtXIeuuRk1Ph-55" value="忘記密碼介面" style="swimlane;fontStyle=1;align=center;verticalAlign=top;childLayout=stackLayout;horizontal=1;startSize=26;horizontalStack=0;resizeParent=1;resizeParentMax=0;resizeLast=0;collapsible=1;marginBottom=0;whiteSpace=wrap;html=1;" vertex="1" parent="WIyWlLk6GJQsqaUBKTNV-1">
          <mxGeometry x="1132.5" y="-830" width="180" height="86" as="geometry" />
        </mxCell>
        <mxCell id="i3I4o2aXOtXIeuuRk1Ph-56" value="　" style="text;strokeColor=none;fillColor=none;align=left;verticalAlign=top;spacingLeft=4;spacingRight=4;overflow=hidden;rotatable=0;points=[[0,0.5],[1,0.5]];portConstraint=eastwest;whiteSpace=wrap;html=1;" vertex="1" parent="i3I4o2aXOtXIeuuRk1Ph-55">
          <mxGeometry y="26" width="180" height="26" as="geometry" />
        </mxCell>
        <mxCell id="i3I4o2aXOtXIeuuRk1Ph-57" value="" style="line;strokeWidth=1;fillColor=none;align=left;verticalAlign=middle;spacingTop=-1;spacingLeft=3;spacingRight=3;rotatable=0;labelPosition=right;points=[];portConstraint=eastwest;strokeColor=inherit;" vertex="1" parent="i3I4o2aXOtXIeuuRk1Ph-55">
          <mxGeometry y="52" width="180" height="8" as="geometry" />
        </mxCell>
        <mxCell id="i3I4o2aXOtXIeuuRk1Ph-58" value="＋ClickForgetPasswordButton()" style="text;strokeColor=none;fillColor=none;align=left;verticalAlign=top;spacingLeft=4;spacingRight=4;overflow=hidden;rotatable=0;points=[[0,0.5],[1,0.5]];portConstraint=eastwest;whiteSpace=wrap;html=1;" vertex="1" parent="i3I4o2aXOtXIeuuRk1Ph-55">
          <mxGeometry y="60" width="180" height="26" as="geometry" />
        </mxCell>
        <mxCell id="i3I4o2aXOtXIeuuRk1Ph-60" value="修改資料介面" style="swimlane;fontStyle=1;align=center;verticalAlign=top;childLayout=stackLayout;horizontal=1;startSize=26;horizontalStack=0;resizeParent=1;resizeParentMax=0;resizeLast=0;collapsible=1;marginBottom=0;whiteSpace=wrap;html=1;" vertex="1" parent="WIyWlLk6GJQsqaUBKTNV-1">
          <mxGeometry x="1132.5" y="-618" width="290" height="112" as="geometry" />
        </mxCell>
        <mxCell id="i3I4o2aXOtXIeuuRk1Ph-61" value="　" style="text;strokeColor=none;fillColor=none;align=left;verticalAlign=top;spacingLeft=4;spacingRight=4;overflow=hidden;rotatable=0;points=[[0,0.5],[1,0.5]];portConstraint=eastwest;whiteSpace=wrap;html=1;" vertex="1" parent="i3I4o2aXOtXIeuuRk1Ph-60">
          <mxGeometry y="26" width="290" height="26" as="geometry" />
        </mxCell>
        <mxCell id="i3I4o2aXOtXIeuuRk1Ph-62" value="" style="line;strokeWidth=1;fillColor=none;align=left;verticalAlign=middle;spacingTop=-1;spacingLeft=3;spacingRight=3;rotatable=0;labelPosition=right;points=[];portConstraint=eastwest;strokeColor=inherit;" vertex="1" parent="i3I4o2aXOtXIeuuRk1Ph-60">
          <mxGeometry y="52" width="290" height="8" as="geometry" />
        </mxCell>
        <mxCell id="i3I4o2aXOtXIeuuRk1Ph-64" value="+ ClickModifyInformationButton()" style="text;strokeColor=none;fillColor=none;align=left;verticalAlign=top;spacingLeft=4;spacingRight=4;overflow=hidden;rotatable=0;points=[[0,0.5],[1,0.5]];portConstraint=eastwest;whiteSpace=wrap;html=1;" vertex="1" parent="i3I4o2aXOtXIeuuRk1Ph-60">
          <mxGeometry y="60" width="290" height="26" as="geometry" />
        </mxCell>
        <mxCell id="i3I4o2aXOtXIeuuRk1Ph-63" value="+&amp;nbsp;ModifyInformation(account,password,name,Email)" style="text;strokeColor=none;fillColor=none;align=left;verticalAlign=top;spacingLeft=4;spacingRight=4;overflow=hidden;rotatable=0;points=[[0,0.5],[1,0.5]];portConstraint=eastwest;whiteSpace=wrap;html=1;" vertex="1" parent="i3I4o2aXOtXIeuuRk1Ph-60">
          <mxGeometry y="86" width="290" height="26" as="geometry" />
        </mxCell>
        <mxCell id="i3I4o2aXOtXIeuuRk1Ph-65" value="登出介面" style="swimlane;fontStyle=1;align=center;verticalAlign=top;childLayout=stackLayout;horizontal=1;startSize=26;horizontalStack=0;resizeParent=1;resizeParentMax=0;resizeLast=0;collapsible=1;marginBottom=0;whiteSpace=wrap;html=1;" vertex="1" parent="WIyWlLk6GJQsqaUBKTNV-1">
          <mxGeometry x="1132.5" y="-717" width="125" height="86" as="geometry" />
        </mxCell>
        <mxCell id="i3I4o2aXOtXIeuuRk1Ph-66" value="　" style="text;strokeColor=none;fillColor=none;align=left;verticalAlign=top;spacingLeft=4;spacingRight=4;overflow=hidden;rotatable=0;points=[[0,0.5],[1,0.5]];portConstraint=eastwest;whiteSpace=wrap;html=1;" vertex="1" parent="i3I4o2aXOtXIeuuRk1Ph-65">
          <mxGeometry y="26" width="125" height="26" as="geometry" />
        </mxCell>
        <mxCell id="i3I4o2aXOtXIeuuRk1Ph-67" value="" style="line;strokeWidth=1;fillColor=none;align=left;verticalAlign=middle;spacingTop=-1;spacingLeft=3;spacingRight=3;rotatable=0;labelPosition=right;points=[];portConstraint=eastwest;strokeColor=inherit;" vertex="1" parent="i3I4o2aXOtXIeuuRk1Ph-65">
          <mxGeometry y="52" width="125" height="8" as="geometry" />
        </mxCell>
        <mxCell id="i3I4o2aXOtXIeuuRk1Ph-68" value="+&amp;nbsp;ClickLogoutButton()" style="text;strokeColor=none;fillColor=none;align=left;verticalAlign=top;spacingLeft=4;spacingRight=4;overflow=hidden;rotatable=0;points=[[0,0.5],[1,0.5]];portConstraint=eastwest;whiteSpace=wrap;html=1;" vertex="1" parent="i3I4o2aXOtXIeuuRk1Ph-65">
          <mxGeometry y="60" width="125" height="26" as="geometry" />
        </mxCell>
        <mxCell id="i3I4o2aXOtXIeuuRk1Ph-153" style="edgeStyle=orthogonalEdgeStyle;rounded=0;orthogonalLoop=1;jettySize=auto;html=1;" edge="1" parent="WIyWlLk6GJQsqaUBKTNV-1" source="i3I4o2aXOtXIeuuRk1Ph-69" target="i3I4o2aXOtXIeuuRk1Ph-77">
          <mxGeometry relative="1" as="geometry" />
        </mxCell>
        <mxCell id="i3I4o2aXOtXIeuuRk1Ph-69" value="選擇城市介面" style="swimlane;fontStyle=1;align=center;verticalAlign=top;childLayout=stackLayout;horizontal=1;startSize=26;horizontalStack=0;resizeParent=1;resizeParentMax=0;resizeLast=0;collapsible=1;marginBottom=0;whiteSpace=wrap;html=1;" vertex="1" parent="WIyWlLk6GJQsqaUBKTNV-1">
          <mxGeometry x="642.5" y="-26" width="155" height="82" as="geometry" />
        </mxCell>
        <mxCell id="i3I4o2aXOtXIeuuRk1Ph-70" value="　" style="text;strokeColor=none;fillColor=none;align=left;verticalAlign=top;spacingLeft=4;spacingRight=4;overflow=hidden;rotatable=0;points=[[0,0.5],[1,0.5]];portConstraint=eastwest;whiteSpace=wrap;html=1;" vertex="1" parent="i3I4o2aXOtXIeuuRk1Ph-69">
          <mxGeometry y="26" width="155" height="22" as="geometry" />
        </mxCell>
        <mxCell id="i3I4o2aXOtXIeuuRk1Ph-71" value="" style="line;strokeWidth=1;fillColor=none;align=left;verticalAlign=middle;spacingTop=-1;spacingLeft=3;spacingRight=3;rotatable=0;labelPosition=right;points=[];portConstraint=eastwest;strokeColor=inherit;" vertex="1" parent="i3I4o2aXOtXIeuuRk1Ph-69">
          <mxGeometry y="48" width="155" height="8" as="geometry" />
        </mxCell>
        <mxCell id="i3I4o2aXOtXIeuuRk1Ph-72" value="+ ClickChooseCityButton()" style="text;strokeColor=none;fillColor=none;align=left;verticalAlign=top;spacingLeft=4;spacingRight=4;overflow=hidden;rotatable=0;points=[[0,0.5],[1,0.5]];portConstraint=eastwest;whiteSpace=wrap;html=1;" vertex="1" parent="i3I4o2aXOtXIeuuRk1Ph-69">
          <mxGeometry y="56" width="155" height="26" as="geometry" />
        </mxCell>
        <mxCell id="i3I4o2aXOtXIeuuRk1Ph-151" style="edgeStyle=orthogonalEdgeStyle;rounded=0;orthogonalLoop=1;jettySize=auto;html=1;" edge="1" parent="WIyWlLk6GJQsqaUBKTNV-1" source="i3I4o2aXOtXIeuuRk1Ph-73" target="i3I4o2aXOtXIeuuRk1Ph-112">
          <mxGeometry relative="1" as="geometry">
            <Array as="points">
              <mxPoint x="455" y="-157" />
            </Array>
          </mxGeometry>
        </mxCell>
        <mxCell id="i3I4o2aXOtXIeuuRk1Ph-73" value="搜尋" style="swimlane;fontStyle=1;align=center;verticalAlign=top;childLayout=stackLayout;horizontal=1;startSize=26;horizontalStack=0;resizeParent=1;resizeParentMax=0;resizeLast=0;collapsible=1;marginBottom=0;whiteSpace=wrap;html=1;" vertex="1" parent="WIyWlLk6GJQsqaUBKTNV-1">
          <mxGeometry x="400" y="-312" width="160" height="86" as="geometry" />
        </mxCell>
        <mxCell id="i3I4o2aXOtXIeuuRk1Ph-74" value="　" style="text;strokeColor=none;fillColor=none;align=left;verticalAlign=top;spacingLeft=4;spacingRight=4;overflow=hidden;rotatable=0;points=[[0,0.5],[1,0.5]];portConstraint=eastwest;whiteSpace=wrap;html=1;" vertex="1" parent="i3I4o2aXOtXIeuuRk1Ph-73">
          <mxGeometry y="26" width="160" height="26" as="geometry" />
        </mxCell>
        <mxCell id="i3I4o2aXOtXIeuuRk1Ph-75" value="" style="line;strokeWidth=1;fillColor=none;align=left;verticalAlign=middle;spacingTop=-1;spacingLeft=3;spacingRight=3;rotatable=0;labelPosition=right;points=[];portConstraint=eastwest;strokeColor=inherit;" vertex="1" parent="i3I4o2aXOtXIeuuRk1Ph-73">
          <mxGeometry y="52" width="160" height="8" as="geometry" />
        </mxCell>
        <mxCell id="i3I4o2aXOtXIeuuRk1Ph-76" value="+&amp;nbsp;ClickSearchButton()" style="text;strokeColor=none;fillColor=none;align=left;verticalAlign=top;spacingLeft=4;spacingRight=4;overflow=hidden;rotatable=0;points=[[0,0.5],[1,0.5]];portConstraint=eastwest;whiteSpace=wrap;html=1;" vertex="1" parent="i3I4o2aXOtXIeuuRk1Ph-73">
          <mxGeometry y="60" width="160" height="26" as="geometry" />
        </mxCell>
        <mxCell id="i3I4o2aXOtXIeuuRk1Ph-77" value="選擇類別介面" style="swimlane;fontStyle=1;align=center;verticalAlign=top;childLayout=stackLayout;horizontal=1;startSize=26;horizontalStack=0;resizeParent=1;resizeParentMax=0;resizeLast=0;collapsible=1;marginBottom=0;whiteSpace=wrap;html=1;" vertex="1" parent="WIyWlLk6GJQsqaUBKTNV-1">
          <mxGeometry x="640" y="88" width="160" height="82" as="geometry" />
        </mxCell>
        <mxCell id="i3I4o2aXOtXIeuuRk1Ph-78" value="　" style="text;strokeColor=none;fillColor=none;align=left;verticalAlign=top;spacingLeft=4;spacingRight=4;overflow=hidden;rotatable=0;points=[[0,0.5],[1,0.5]];portConstraint=eastwest;whiteSpace=wrap;html=1;" vertex="1" parent="i3I4o2aXOtXIeuuRk1Ph-77">
          <mxGeometry y="26" width="160" height="22" as="geometry" />
        </mxCell>
        <mxCell id="i3I4o2aXOtXIeuuRk1Ph-79" value="" style="line;strokeWidth=1;fillColor=none;align=left;verticalAlign=middle;spacingTop=-1;spacingLeft=3;spacingRight=3;rotatable=0;labelPosition=right;points=[];portConstraint=eastwest;strokeColor=inherit;" vertex="1" parent="i3I4o2aXOtXIeuuRk1Ph-77">
          <mxGeometry y="48" width="160" height="8" as="geometry" />
        </mxCell>
        <mxCell id="i3I4o2aXOtXIeuuRk1Ph-80" value="+&amp;nbsp;EnterChooseSortButton()" style="text;strokeColor=none;fillColor=none;align=left;verticalAlign=top;spacingLeft=4;spacingRight=4;overflow=hidden;rotatable=0;points=[[0,0.5],[1,0.5]];portConstraint=eastwest;whiteSpace=wrap;html=1;" vertex="1" parent="i3I4o2aXOtXIeuuRk1Ph-77">
          <mxGeometry y="56" width="160" height="26" as="geometry" />
        </mxCell>
        <mxCell id="i3I4o2aXOtXIeuuRk1Ph-150" style="edgeStyle=orthogonalEdgeStyle;rounded=0;orthogonalLoop=1;jettySize=auto;html=1;" edge="1" parent="WIyWlLk6GJQsqaUBKTNV-1" source="i3I4o2aXOtXIeuuRk1Ph-81" target="i3I4o2aXOtXIeuuRk1Ph-73">
          <mxGeometry relative="1" as="geometry" />
        </mxCell>
        <mxCell id="i3I4o2aXOtXIeuuRk1Ph-154" style="edgeStyle=orthogonalEdgeStyle;rounded=0;orthogonalLoop=1;jettySize=auto;html=1;" edge="1" parent="WIyWlLk6GJQsqaUBKTNV-1" source="i3I4o2aXOtXIeuuRk1Ph-81" target="i3I4o2aXOtXIeuuRk1Ph-85">
          <mxGeometry relative="1" as="geometry" />
        </mxCell>
        <mxCell id="i3I4o2aXOtXIeuuRk1Ph-155" style="edgeStyle=orthogonalEdgeStyle;rounded=0;orthogonalLoop=1;jettySize=auto;html=1;" edge="1" parent="WIyWlLk6GJQsqaUBKTNV-1" source="i3I4o2aXOtXIeuuRk1Ph-81" target="i3I4o2aXOtXIeuuRk1Ph-104">
          <mxGeometry relative="1" as="geometry" />
        </mxCell>
        <mxCell id="i3I4o2aXOtXIeuuRk1Ph-81" value="房屋介面" style="swimlane;fontStyle=1;align=center;verticalAlign=top;childLayout=stackLayout;horizontal=1;startSize=26;horizontalStack=0;resizeParent=1;resizeParentMax=0;resizeLast=0;collapsible=1;marginBottom=0;whiteSpace=wrap;html=1;" vertex="1" parent="WIyWlLk6GJQsqaUBKTNV-1">
          <mxGeometry x="672.5" y="-310" width="90" height="82" as="geometry" />
        </mxCell>
        <mxCell id="i3I4o2aXOtXIeuuRk1Ph-82" value="　" style="text;strokeColor=none;fillColor=none;align=left;verticalAlign=top;spacingLeft=4;spacingRight=4;overflow=hidden;rotatable=0;points=[[0,0.5],[1,0.5]];portConstraint=eastwest;whiteSpace=wrap;html=1;" vertex="1" parent="i3I4o2aXOtXIeuuRk1Ph-81">
          <mxGeometry y="26" width="90" height="22" as="geometry" />
        </mxCell>
        <mxCell id="i3I4o2aXOtXIeuuRk1Ph-83" value="" style="line;strokeWidth=1;fillColor=none;align=left;verticalAlign=middle;spacingTop=-1;spacingLeft=3;spacingRight=3;rotatable=0;labelPosition=right;points=[];portConstraint=eastwest;strokeColor=inherit;" vertex="1" parent="i3I4o2aXOtXIeuuRk1Ph-81">
          <mxGeometry y="48" width="90" height="8" as="geometry" />
        </mxCell>
        <mxCell id="i3I4o2aXOtXIeuuRk1Ph-84" value="+&amp;nbsp;ClickHouse()" style="text;strokeColor=none;fillColor=none;align=left;verticalAlign=top;spacingLeft=4;spacingRight=4;overflow=hidden;rotatable=0;points=[[0,0.5],[1,0.5]];portConstraint=eastwest;whiteSpace=wrap;html=1;" vertex="1" parent="i3I4o2aXOtXIeuuRk1Ph-81">
          <mxGeometry y="56" width="90" height="26" as="geometry" />
        </mxCell>
        <mxCell id="i3I4o2aXOtXIeuuRk1Ph-157" style="edgeStyle=orthogonalEdgeStyle;rounded=0;orthogonalLoop=1;jettySize=auto;html=1;" edge="1" parent="WIyWlLk6GJQsqaUBKTNV-1" source="i3I4o2aXOtXIeuuRk1Ph-85" target="i3I4o2aXOtXIeuuRk1Ph-97">
          <mxGeometry relative="1" as="geometry" />
        </mxCell>
        <mxCell id="i3I4o2aXOtXIeuuRk1Ph-85" value="收藏界面" style="swimlane;fontStyle=1;align=center;verticalAlign=top;childLayout=stackLayout;horizontal=1;startSize=26;horizontalStack=0;resizeParent=1;resizeParentMax=0;resizeLast=0;collapsible=1;marginBottom=0;whiteSpace=wrap;html=1;" vertex="1" parent="WIyWlLk6GJQsqaUBKTNV-1">
          <mxGeometry x="870" y="-272" width="120" height="82" as="geometry" />
        </mxCell>
        <mxCell id="i3I4o2aXOtXIeuuRk1Ph-86" value="　" style="text;strokeColor=none;fillColor=none;align=left;verticalAlign=top;spacingLeft=4;spacingRight=4;overflow=hidden;rotatable=0;points=[[0,0.5],[1,0.5]];portConstraint=eastwest;whiteSpace=wrap;html=1;" vertex="1" parent="i3I4o2aXOtXIeuuRk1Ph-85">
          <mxGeometry y="26" width="120" height="22" as="geometry" />
        </mxCell>
        <mxCell id="i3I4o2aXOtXIeuuRk1Ph-87" value="" style="line;strokeWidth=1;fillColor=none;align=left;verticalAlign=middle;spacingTop=-1;spacingLeft=3;spacingRight=3;rotatable=0;labelPosition=right;points=[];portConstraint=eastwest;strokeColor=inherit;" vertex="1" parent="i3I4o2aXOtXIeuuRk1Ph-85">
          <mxGeometry y="48" width="120" height="8" as="geometry" />
        </mxCell>
        <mxCell id="i3I4o2aXOtXIeuuRk1Ph-88" value="+&amp;nbsp;ClickKeepButton()" style="text;strokeColor=none;fillColor=none;align=left;verticalAlign=top;spacingLeft=4;spacingRight=4;overflow=hidden;rotatable=0;points=[[0,0.5],[1,0.5]];portConstraint=eastwest;whiteSpace=wrap;html=1;" vertex="1" parent="i3I4o2aXOtXIeuuRk1Ph-85">
          <mxGeometry y="56" width="120" height="26" as="geometry" />
        </mxCell>
        <mxCell id="i3I4o2aXOtXIeuuRk1Ph-93" value="出租修改介面" style="swimlane;fontStyle=1;align=center;verticalAlign=top;childLayout=stackLayout;horizontal=1;startSize=26;horizontalStack=0;resizeParent=1;resizeParentMax=0;resizeLast=0;collapsible=1;marginBottom=0;whiteSpace=wrap;html=1;" vertex="1" parent="WIyWlLk6GJQsqaUBKTNV-1">
          <mxGeometry x="1075" y="-130" width="150" height="82" as="geometry" />
        </mxCell>
        <mxCell id="i3I4o2aXOtXIeuuRk1Ph-94" value="　" style="text;strokeColor=none;fillColor=none;align=left;verticalAlign=top;spacingLeft=4;spacingRight=4;overflow=hidden;rotatable=0;points=[[0,0.5],[1,0.5]];portConstraint=eastwest;whiteSpace=wrap;html=1;" vertex="1" parent="i3I4o2aXOtXIeuuRk1Ph-93">
          <mxGeometry y="26" width="150" height="22" as="geometry" />
        </mxCell>
        <mxCell id="i3I4o2aXOtXIeuuRk1Ph-95" value="" style="line;strokeWidth=1;fillColor=none;align=left;verticalAlign=middle;spacingTop=-1;spacingLeft=3;spacingRight=3;rotatable=0;labelPosition=right;points=[];portConstraint=eastwest;strokeColor=inherit;" vertex="1" parent="i3I4o2aXOtXIeuuRk1Ph-93">
          <mxGeometry y="48" width="150" height="8" as="geometry" />
        </mxCell>
        <mxCell id="i3I4o2aXOtXIeuuRk1Ph-96" value="+&amp;nbsp;ClickRent&lt;span style=&quot;font-size: 11px; text-align: center; background-color: rgb(255, 255, 255);&quot;&gt;ReviseButtin()&lt;/span&gt;" style="text;strokeColor=none;fillColor=none;align=left;verticalAlign=top;spacingLeft=4;spacingRight=4;overflow=hidden;rotatable=0;points=[[0,0.5],[1,0.5]];portConstraint=eastwest;whiteSpace=wrap;html=1;" vertex="1" parent="i3I4o2aXOtXIeuuRk1Ph-93">
          <mxGeometry y="56" width="150" height="26" as="geometry" />
        </mxCell>
        <mxCell id="i3I4o2aXOtXIeuuRk1Ph-97" value="收藏" style="swimlane;fontStyle=1;align=center;verticalAlign=top;childLayout=stackLayout;horizontal=1;startSize=26;horizontalStack=0;resizeParent=1;resizeParentMax=0;resizeLast=0;collapsible=1;marginBottom=0;whiteSpace=wrap;html=1;" vertex="1" parent="WIyWlLk6GJQsqaUBKTNV-1">
          <mxGeometry x="850" y="-162" width="160" height="146" as="geometry" />
        </mxCell>
        <mxCell id="i3I4o2aXOtXIeuuRk1Ph-98" value="- 屋源ID" style="text;strokeColor=none;fillColor=none;align=left;verticalAlign=top;spacingLeft=4;spacingRight=4;overflow=hidden;rotatable=0;points=[[0,0.5],[1,0.5]];portConstraint=eastwest;whiteSpace=wrap;html=1;" vertex="1" parent="i3I4o2aXOtXIeuuRk1Ph-97">
          <mxGeometry y="26" width="160" height="26" as="geometry" />
        </mxCell>
        <mxCell id="buDff24A2Pe4aCsP9TQ9-23" value="- 收藏ID" style="text;strokeColor=none;fillColor=none;align=left;verticalAlign=middle;spacingLeft=4;spacingRight=4;overflow=hidden;points=[[0,0.5],[1,0.5]];portConstraint=eastwest;rotatable=0;whiteSpace=wrap;html=1;" parent="i3I4o2aXOtXIeuuRk1Ph-97" vertex="1">
          <mxGeometry y="52" width="160" height="30" as="geometry" />
        </mxCell>
        <mxCell id="buDff24A2Pe4aCsP9TQ9-24" value="- 收藏紀錄" style="text;strokeColor=none;fillColor=none;align=left;verticalAlign=middle;spacingLeft=4;spacingRight=4;overflow=hidden;points=[[0,0.5],[1,0.5]];portConstraint=eastwest;rotatable=0;whiteSpace=wrap;html=1;" parent="i3I4o2aXOtXIeuuRk1Ph-97" vertex="1">
          <mxGeometry y="82" width="160" height="30" as="geometry" />
        </mxCell>
        <mxCell id="i3I4o2aXOtXIeuuRk1Ph-99" value="" style="line;strokeWidth=1;fillColor=none;align=left;verticalAlign=middle;spacingTop=-1;spacingLeft=3;spacingRight=3;rotatable=0;labelPosition=right;points=[];portConstraint=eastwest;strokeColor=inherit;" vertex="1" parent="i3I4o2aXOtXIeuuRk1Ph-97">
          <mxGeometry y="112" width="160" height="8" as="geometry" />
        </mxCell>
        <mxCell id="i3I4o2aXOtXIeuuRk1Ph-100" value="　" style="text;strokeColor=none;fillColor=none;align=left;verticalAlign=top;spacingLeft=4;spacingRight=4;overflow=hidden;rotatable=0;points=[[0,0.5],[1,0.5]];portConstraint=eastwest;whiteSpace=wrap;html=1;" vertex="1" parent="i3I4o2aXOtXIeuuRk1Ph-97">
          <mxGeometry y="120" width="160" height="26" as="geometry" />
        </mxCell>
        <mxCell id="i3I4o2aXOtXIeuuRk1Ph-104" value="搜尋紀錄" style="swimlane;fontStyle=1;align=center;verticalAlign=top;childLayout=stackLayout;horizontal=1;startSize=26;horizontalStack=0;resizeParent=1;resizeParentMax=0;resizeLast=0;collapsible=1;marginBottom=0;whiteSpace=wrap;html=1;" vertex="1" parent="WIyWlLk6GJQsqaUBKTNV-1">
          <mxGeometry x="637.5" y="-190" width="160" height="150" as="geometry" />
        </mxCell>
        <mxCell id="buDff24A2Pe4aCsP9TQ9-27" value="- 屋源ID" style="text;strokeColor=none;fillColor=none;align=left;verticalAlign=middle;spacingLeft=4;spacingRight=4;overflow=hidden;points=[[0,0.5],[1,0.5]];portConstraint=eastwest;rotatable=0;whiteSpace=wrap;html=1;" parent="i3I4o2aXOtXIeuuRk1Ph-104" vertex="1">
          <mxGeometry y="26" width="160" height="30" as="geometry" />
        </mxCell>
        <mxCell id="buDff24A2Pe4aCsP9TQ9-28" value="- 收藏ID" style="text;strokeColor=none;fillColor=none;align=left;verticalAlign=middle;spacingLeft=4;spacingRight=4;overflow=hidden;points=[[0,0.5],[1,0.5]];portConstraint=eastwest;rotatable=0;whiteSpace=wrap;html=1;" parent="i3I4o2aXOtXIeuuRk1Ph-104" vertex="1">
          <mxGeometry y="56" width="160" height="30" as="geometry" />
        </mxCell>
        <mxCell id="buDff24A2Pe4aCsP9TQ9-29" value="- 收藏紀錄" style="text;strokeColor=none;fillColor=none;align=left;verticalAlign=middle;spacingLeft=4;spacingRight=4;overflow=hidden;points=[[0,0.5],[1,0.5]];portConstraint=eastwest;rotatable=0;whiteSpace=wrap;html=1;" parent="i3I4o2aXOtXIeuuRk1Ph-104" vertex="1">
          <mxGeometry y="86" width="160" height="30" as="geometry" />
        </mxCell>
        <mxCell id="i3I4o2aXOtXIeuuRk1Ph-106" value="" style="line;strokeWidth=1;fillColor=none;align=left;verticalAlign=middle;spacingTop=-1;spacingLeft=3;spacingRight=3;rotatable=0;labelPosition=right;points=[];portConstraint=eastwest;strokeColor=inherit;" vertex="1" parent="i3I4o2aXOtXIeuuRk1Ph-104">
          <mxGeometry y="116" width="160" height="8" as="geometry" />
        </mxCell>
        <mxCell id="i3I4o2aXOtXIeuuRk1Ph-107" value="　" style="text;strokeColor=none;fillColor=none;align=left;verticalAlign=top;spacingLeft=4;spacingRight=4;overflow=hidden;rotatable=0;points=[[0,0.5],[1,0.5]];portConstraint=eastwest;whiteSpace=wrap;html=1;" vertex="1" parent="i3I4o2aXOtXIeuuRk1Ph-104">
          <mxGeometry y="124" width="160" height="26" as="geometry" />
        </mxCell>
        <mxCell id="i3I4o2aXOtXIeuuRk1Ph-147" style="edgeStyle=orthogonalEdgeStyle;rounded=0;orthogonalLoop=1;jettySize=auto;html=1;" edge="1" parent="WIyWlLk6GJQsqaUBKTNV-1" source="i3I4o2aXOtXIeuuRk1Ph-108" target="i3I4o2aXOtXIeuuRk1Ph-81">
          <mxGeometry relative="1" as="geometry" />
        </mxCell>
        <mxCell id="i3I4o2aXOtXIeuuRk1Ph-108" value="租客" style="swimlane;fontStyle=1;align=center;verticalAlign=top;childLayout=stackLayout;horizontal=1;startSize=26;horizontalStack=0;resizeParent=1;resizeParentMax=0;resizeLast=0;collapsible=1;marginBottom=0;whiteSpace=wrap;html=1;" vertex="1" parent="WIyWlLk6GJQsqaUBKTNV-1">
          <mxGeometry x="637.5" y="-477" width="160" height="112" as="geometry" />
        </mxCell>
        <mxCell id="zkfFHV4jXpPFQw0GAbJ--14" value="- ID" style="text;align=left;verticalAlign=top;spacingLeft=4;spacingRight=4;overflow=hidden;rotatable=0;points=[[0,0.5],[1,0.5]];portConstraint=eastwest;" parent="i3I4o2aXOtXIeuuRk1Ph-108" vertex="1">
          <mxGeometry y="26" width="160" height="26" as="geometry" />
        </mxCell>
        <mxCell id="buDff24A2Pe4aCsP9TQ9-3" value="- 名字" style="text;align=left;verticalAlign=top;spacingLeft=4;spacingRight=4;overflow=hidden;rotatable=0;points=[[0,0.5],[1,0.5]];portConstraint=eastwest;" parent="i3I4o2aXOtXIeuuRk1Ph-108" vertex="1">
          <mxGeometry y="52" width="160" height="26" as="geometry" />
        </mxCell>
        <mxCell id="i3I4o2aXOtXIeuuRk1Ph-110" value="" style="line;strokeWidth=1;fillColor=none;align=left;verticalAlign=middle;spacingTop=-1;spacingLeft=3;spacingRight=3;rotatable=0;labelPosition=right;points=[];portConstraint=eastwest;strokeColor=inherit;" vertex="1" parent="i3I4o2aXOtXIeuuRk1Ph-108">
          <mxGeometry y="78" width="160" height="8" as="geometry" />
        </mxCell>
        <mxCell id="i3I4o2aXOtXIeuuRk1Ph-111" value="　" style="text;strokeColor=none;fillColor=none;align=left;verticalAlign=top;spacingLeft=4;spacingRight=4;overflow=hidden;rotatable=0;points=[[0,0.5],[1,0.5]];portConstraint=eastwest;whiteSpace=wrap;html=1;" vertex="1" parent="i3I4o2aXOtXIeuuRk1Ph-108">
          <mxGeometry y="86" width="160" height="26" as="geometry" />
        </mxCell>
        <mxCell id="i3I4o2aXOtXIeuuRk1Ph-152" style="edgeStyle=orthogonalEdgeStyle;rounded=0;orthogonalLoop=1;jettySize=auto;html=1;" edge="1" parent="WIyWlLk6GJQsqaUBKTNV-1" source="i3I4o2aXOtXIeuuRk1Ph-112" target="i3I4o2aXOtXIeuuRk1Ph-69">
          <mxGeometry relative="1" as="geometry" />
        </mxCell>
        <mxCell id="i3I4o2aXOtXIeuuRk1Ph-112" value="屋源資料" style="swimlane;fontStyle=1;align=center;verticalAlign=top;childLayout=stackLayout;horizontal=1;startSize=26;horizontalStack=0;resizeParent=1;resizeParentMax=0;resizeLast=0;collapsible=1;marginBottom=0;whiteSpace=wrap;html=1;" vertex="1" parent="WIyWlLk6GJQsqaUBKTNV-1">
          <mxGeometry x="340" y="-120" width="230" height="270" as="geometry" />
        </mxCell>
        <mxCell id="buDff24A2Pe4aCsP9TQ9-6" value="- 屋源ID" style="text;strokeColor=none;fillColor=none;align=left;verticalAlign=middle;spacingLeft=4;spacingRight=4;overflow=hidden;points=[[0,0.5],[1,0.5]];portConstraint=eastwest;rotatable=0;whiteSpace=wrap;html=1;" parent="i3I4o2aXOtXIeuuRk1Ph-112" vertex="1">
          <mxGeometry y="26" width="230" height="30" as="geometry" />
        </mxCell>
        <mxCell id="buDff24A2Pe4aCsP9TQ9-7" value="- 標題" style="text;strokeColor=none;fillColor=none;align=left;verticalAlign=middle;spacingLeft=4;spacingRight=4;overflow=hidden;points=[[0,0.5],[1,0.5]];portConstraint=eastwest;rotatable=0;whiteSpace=wrap;html=1;" parent="i3I4o2aXOtXIeuuRk1Ph-112" vertex="1">
          <mxGeometry y="56" width="230" height="30" as="geometry" />
        </mxCell>
        <mxCell id="buDff24A2Pe4aCsP9TQ9-8" value="- 鄉鎮" style="text;strokeColor=none;fillColor=none;align=left;verticalAlign=middle;spacingLeft=4;spacingRight=4;overflow=hidden;points=[[0,0.5],[1,0.5]];portConstraint=eastwest;rotatable=0;whiteSpace=wrap;html=1;" parent="i3I4o2aXOtXIeuuRk1Ph-112" vertex="1">
          <mxGeometry y="86" width="230" height="30" as="geometry" />
        </mxCell>
        <mxCell id="buDff24A2Pe4aCsP9TQ9-10" value="- 類型" style="text;strokeColor=none;fillColor=none;align=left;verticalAlign=middle;spacingLeft=4;spacingRight=4;overflow=hidden;points=[[0,0.5],[1,0.5]];portConstraint=eastwest;rotatable=0;whiteSpace=wrap;html=1;" parent="i3I4o2aXOtXIeuuRk1Ph-112" vertex="1">
          <mxGeometry y="116" width="230" height="30" as="geometry" />
        </mxCell>
        <mxCell id="buDff24A2Pe4aCsP9TQ9-12" value="- 租金" style="text;strokeColor=none;fillColor=none;align=left;verticalAlign=middle;spacingLeft=4;spacingRight=4;overflow=hidden;points=[[0,0.5],[1,0.5]];portConstraint=eastwest;rotatable=0;whiteSpace=wrap;html=1;" parent="i3I4o2aXOtXIeuuRk1Ph-112" vertex="1">
          <mxGeometry y="146" width="230" height="30" as="geometry" />
        </mxCell>
        <mxCell id="buDff24A2Pe4aCsP9TQ9-13" value="- 坪數" style="text;strokeColor=none;fillColor=none;align=left;verticalAlign=middle;spacingLeft=4;spacingRight=4;overflow=hidden;points=[[0,0.5],[1,0.5]];portConstraint=eastwest;rotatable=0;whiteSpace=wrap;html=1;" parent="i3I4o2aXOtXIeuuRk1Ph-112" vertex="1">
          <mxGeometry y="176" width="230" height="30" as="geometry" />
        </mxCell>
        <mxCell id="buDff24A2Pe4aCsP9TQ9-9" value="- 設施" style="text;strokeColor=none;fillColor=none;align=left;verticalAlign=middle;spacingLeft=4;spacingRight=4;overflow=hidden;points=[[0,0.5],[1,0.5]];portConstraint=eastwest;rotatable=0;whiteSpace=wrap;html=1;" parent="i3I4o2aXOtXIeuuRk1Ph-112" vertex="1">
          <mxGeometry y="206" width="230" height="30" as="geometry" />
        </mxCell>
        <mxCell id="i3I4o2aXOtXIeuuRk1Ph-114" value="" style="line;strokeWidth=1;fillColor=none;align=left;verticalAlign=middle;spacingTop=-1;spacingLeft=3;spacingRight=3;rotatable=0;labelPosition=right;points=[];portConstraint=eastwest;strokeColor=inherit;" vertex="1" parent="i3I4o2aXOtXIeuuRk1Ph-112">
          <mxGeometry y="236" width="230" height="8" as="geometry" />
        </mxCell>
        <mxCell id="i3I4o2aXOtXIeuuRk1Ph-115" value="　" style="text;strokeColor=none;fillColor=none;align=left;verticalAlign=top;spacingLeft=4;spacingRight=4;overflow=hidden;rotatable=0;points=[[0,0.5],[1,0.5]];portConstraint=eastwest;whiteSpace=wrap;html=1;" vertex="1" parent="i3I4o2aXOtXIeuuRk1Ph-112">
          <mxGeometry y="244" width="230" height="26" as="geometry" />
        </mxCell>
        <mxCell id="i3I4o2aXOtXIeuuRk1Ph-139" style="edgeStyle=orthogonalEdgeStyle;rounded=0;orthogonalLoop=1;jettySize=auto;html=1;" edge="1" parent="WIyWlLk6GJQsqaUBKTNV-1" source="i3I4o2aXOtXIeuuRk1Ph-116" target="i3I4o2aXOtXIeuuRk1Ph-128">
          <mxGeometry relative="1" as="geometry" />
        </mxCell>
        <mxCell id="i3I4o2aXOtXIeuuRk1Ph-116" value="使用者" style="swimlane;fontStyle=1;align=center;verticalAlign=top;childLayout=stackLayout;horizontal=1;startSize=26;horizontalStack=0;resizeParent=1;resizeParentMax=0;resizeLast=0;collapsible=1;marginBottom=0;whiteSpace=wrap;html=1;" vertex="1" parent="WIyWlLk6GJQsqaUBKTNV-1">
          <mxGeometry x="430" y="-1110" width="250" height="242" as="geometry" />
        </mxCell>
        <mxCell id="zkfFHV4jXpPFQw0GAbJ--1" value="- ID" style="text;align=left;verticalAlign=top;spacingLeft=4;spacingRight=4;overflow=hidden;rotatable=0;points=[[0,0.5],[1,0.5]];portConstraint=eastwest;" parent="i3I4o2aXOtXIeuuRk1Ph-116" vertex="1">
          <mxGeometry y="26" width="250" height="26" as="geometry" />
        </mxCell>
        <mxCell id="zkfFHV4jXpPFQw0GAbJ--2" value="- 名字" style="text;align=left;verticalAlign=top;spacingLeft=4;spacingRight=4;overflow=hidden;rotatable=0;points=[[0,0.5],[1,0.5]];portConstraint=eastwest;rounded=0;shadow=0;html=0;" parent="i3I4o2aXOtXIeuuRk1Ph-116" vertex="1">
          <mxGeometry y="52" width="250" height="26" as="geometry" />
        </mxCell>
        <mxCell id="zkfFHV4jXpPFQw0GAbJ--3" value="- 密碼 " style="text;align=left;verticalAlign=top;spacingLeft=4;spacingRight=4;overflow=hidden;rotatable=0;points=[[0,0.5],[1,0.5]];portConstraint=eastwest;rounded=0;shadow=0;html=0;" parent="i3I4o2aXOtXIeuuRk1Ph-116" vertex="1">
          <mxGeometry y="78" width="250" height="26" as="geometry" />
        </mxCell>
        <mxCell id="zkfFHV4jXpPFQw0GAbJ--5" value="- 電子郵件" style="text;align=left;verticalAlign=top;spacingLeft=4;spacingRight=4;overflow=hidden;rotatable=0;points=[[0,0.5],[1,0.5]];portConstraint=eastwest;" parent="i3I4o2aXOtXIeuuRk1Ph-116" vertex="1">
          <mxGeometry y="104" width="250" height="26" as="geometry" />
        </mxCell>
        <mxCell id="i3I4o2aXOtXIeuuRk1Ph-118" value="" style="line;strokeWidth=1;fillColor=none;align=left;verticalAlign=middle;spacingTop=-1;spacingLeft=3;spacingRight=3;rotatable=0;labelPosition=right;points=[];portConstraint=eastwest;strokeColor=inherit;" vertex="1" parent="i3I4o2aXOtXIeuuRk1Ph-116">
          <mxGeometry y="130" width="250" height="8" as="geometry" />
        </mxCell>
        <mxCell id="i3I4o2aXOtXIeuuRk1Ph-119" value="+ getId():int" style="text;strokeColor=none;fillColor=none;align=left;verticalAlign=top;spacingLeft=4;spacingRight=4;overflow=hidden;rotatable=0;points=[[0,0.5],[1,0.5]];portConstraint=eastwest;whiteSpace=wrap;html=1;" vertex="1" parent="i3I4o2aXOtXIeuuRk1Ph-116">
          <mxGeometry y="138" width="250" height="26" as="geometry" />
        </mxCell>
        <mxCell id="i3I4o2aXOtXIeuuRk1Ph-122" value="+ getName():String" style="text;strokeColor=none;fillColor=none;align=left;verticalAlign=top;spacingLeft=4;spacingRight=4;overflow=hidden;rotatable=0;points=[[0,0.5],[1,0.5]];portConstraint=eastwest;whiteSpace=wrap;html=1;" vertex="1" parent="i3I4o2aXOtXIeuuRk1Ph-116">
          <mxGeometry y="164" width="250" height="26" as="geometry" />
        </mxCell>
        <mxCell id="i3I4o2aXOtXIeuuRk1Ph-121" value="+ getEmail():String" style="text;strokeColor=none;fillColor=none;align=left;verticalAlign=top;spacingLeft=4;spacingRight=4;overflow=hidden;rotatable=0;points=[[0,0.5],[1,0.5]];portConstraint=eastwest;whiteSpace=wrap;html=1;" vertex="1" parent="i3I4o2aXOtXIeuuRk1Ph-116">
          <mxGeometry y="190" width="250" height="26" as="geometry" />
        </mxCell>
        <mxCell id="i3I4o2aXOtXIeuuRk1Ph-120" value="+login(name:String,password:String):bollean" style="text;strokeColor=none;fillColor=none;align=left;verticalAlign=top;spacingLeft=4;spacingRight=4;overflow=hidden;rotatable=0;points=[[0,0.5],[1,0.5]];portConstraint=eastwest;whiteSpace=wrap;html=1;" vertex="1" parent="i3I4o2aXOtXIeuuRk1Ph-116">
          <mxGeometry y="216" width="250" height="26" as="geometry" />
        </mxCell>
        <mxCell id="i3I4o2aXOtXIeuuRk1Ph-148" style="edgeStyle=orthogonalEdgeStyle;rounded=0;orthogonalLoop=1;jettySize=auto;html=1;" edge="1" parent="WIyWlLk6GJQsqaUBKTNV-1" source="i3I4o2aXOtXIeuuRk1Ph-123" target="i3I4o2aXOtXIeuuRk1Ph-89">
          <mxGeometry relative="1" as="geometry" />
        </mxCell>
        <mxCell id="i3I4o2aXOtXIeuuRk1Ph-123" value="房東" style="swimlane;fontStyle=1;align=center;verticalAlign=top;childLayout=stackLayout;horizontal=1;startSize=26;horizontalStack=0;resizeParent=1;resizeParentMax=0;resizeLast=0;collapsible=1;marginBottom=0;whiteSpace=wrap;html=1;" vertex="1" parent="WIyWlLk6GJQsqaUBKTNV-1">
          <mxGeometry x="892.5" y="-477" width="160" height="138" as="geometry" />
        </mxCell>
        <mxCell id="zkfFHV4jXpPFQw0GAbJ--7" value="- ID" style="text;align=left;verticalAlign=top;spacingLeft=4;spacingRight=4;overflow=hidden;rotatable=0;points=[[0,0.5],[1,0.5]];portConstraint=eastwest;" parent="i3I4o2aXOtXIeuuRk1Ph-123" vertex="1">
          <mxGeometry y="26" width="160" height="26" as="geometry" />
        </mxCell>
        <mxCell id="zkfFHV4jXpPFQw0GAbJ--8" value="- 名字" style="text;align=left;verticalAlign=top;spacingLeft=4;spacingRight=4;overflow=hidden;rotatable=0;points=[[0,0.5],[1,0.5]];portConstraint=eastwest;rounded=0;shadow=0;html=0;" parent="i3I4o2aXOtXIeuuRk1Ph-123" vertex="1">
          <mxGeometry y="52" width="160" height="26" as="geometry" />
        </mxCell>
        <mxCell id="zkfFHV4jXpPFQw0GAbJ--10" value="- 屋源ID" style="text;align=left;verticalAlign=top;spacingLeft=4;spacingRight=4;overflow=hidden;rotatable=0;points=[[0,0.5],[1,0.5]];portConstraint=eastwest;fontStyle=0" parent="i3I4o2aXOtXIeuuRk1Ph-123" vertex="1">
          <mxGeometry y="78" width="160" height="26" as="geometry" />
        </mxCell>
        <mxCell id="i3I4o2aXOtXIeuuRk1Ph-125" value="" style="line;strokeWidth=1;fillColor=none;align=left;verticalAlign=middle;spacingTop=-1;spacingLeft=3;spacingRight=3;rotatable=0;labelPosition=right;points=[];portConstraint=eastwest;strokeColor=inherit;" vertex="1" parent="i3I4o2aXOtXIeuuRk1Ph-123">
          <mxGeometry y="104" width="160" height="8" as="geometry" />
        </mxCell>
        <mxCell id="i3I4o2aXOtXIeuuRk1Ph-126" value="　" style="text;strokeColor=none;fillColor=none;align=left;verticalAlign=top;spacingLeft=4;spacingRight=4;overflow=hidden;rotatable=0;points=[[0,0.5],[1,0.5]];portConstraint=eastwest;whiteSpace=wrap;html=1;" vertex="1" parent="i3I4o2aXOtXIeuuRk1Ph-123">
          <mxGeometry y="112" width="160" height="26" as="geometry" />
        </mxCell>
        <mxCell id="i3I4o2aXOtXIeuuRk1Ph-140" style="edgeStyle=orthogonalEdgeStyle;rounded=0;orthogonalLoop=1;jettySize=auto;html=1;" edge="1" parent="WIyWlLk6GJQsqaUBKTNV-1" source="i3I4o2aXOtXIeuuRk1Ph-128" target="i3I4o2aXOtXIeuuRk1Ph-45">
          <mxGeometry relative="1" as="geometry" />
        </mxCell>
        <mxCell id="i3I4o2aXOtXIeuuRk1Ph-141" style="edgeStyle=orthogonalEdgeStyle;rounded=0;orthogonalLoop=1;jettySize=auto;html=1;" edge="1" parent="WIyWlLk6GJQsqaUBKTNV-1" source="i3I4o2aXOtXIeuuRk1Ph-128" target="i3I4o2aXOtXIeuuRk1Ph-50">
          <mxGeometry relative="1" as="geometry" />
        </mxCell>
        <mxCell id="i3I4o2aXOtXIeuuRk1Ph-128" value="使用者介面" style="swimlane;fontStyle=1;align=center;verticalAlign=top;childLayout=stackLayout;horizontal=1;startSize=26;horizontalStack=0;resizeParent=1;resizeParentMax=0;resizeLast=0;collapsible=1;marginBottom=0;whiteSpace=wrap;html=1;" vertex="1" parent="WIyWlLk6GJQsqaUBKTNV-1">
          <mxGeometry x="465" y="-810" width="180" height="242" as="geometry" />
        </mxCell>
        <mxCell id="i3I4o2aXOtXIeuuRk1Ph-129" value="　" style="text;strokeColor=none;fillColor=none;align=left;verticalAlign=top;spacingLeft=4;spacingRight=4;overflow=hidden;rotatable=0;points=[[0,0.5],[1,0.5]];portConstraint=eastwest;whiteSpace=wrap;html=1;" vertex="1" parent="i3I4o2aXOtXIeuuRk1Ph-128">
          <mxGeometry y="26" width="180" height="26" as="geometry" />
        </mxCell>
        <mxCell id="i3I4o2aXOtXIeuuRk1Ph-130" value="" style="line;strokeWidth=1;fillColor=none;align=left;verticalAlign=middle;spacingTop=-1;spacingLeft=3;spacingRight=3;rotatable=0;labelPosition=right;points=[];portConstraint=eastwest;strokeColor=inherit;" vertex="1" parent="i3I4o2aXOtXIeuuRk1Ph-128">
          <mxGeometry y="52" width="180" height="8" as="geometry" />
        </mxCell>
        <mxCell id="i3I4o2aXOtXIeuuRk1Ph-131" value="+&amp;nbsp;EnterRegisterSystem()" style="text;strokeColor=none;fillColor=none;align=left;verticalAlign=top;spacingLeft=4;spacingRight=4;overflow=hidden;rotatable=0;points=[[0,0.5],[1,0.5]];portConstraint=eastwest;whiteSpace=wrap;html=1;" vertex="1" parent="i3I4o2aXOtXIeuuRk1Ph-128">
          <mxGeometry y="60" width="180" height="26" as="geometry" />
        </mxCell>
        <mxCell id="i3I4o2aXOtXIeuuRk1Ph-132" value="+&amp;nbsp;EnterLoginSystem()" style="text;strokeColor=none;fillColor=none;align=left;verticalAlign=top;spacingLeft=4;spacingRight=4;overflow=hidden;rotatable=0;points=[[0,0.5],[1,0.5]];portConstraint=eastwest;whiteSpace=wrap;html=1;" vertex="1" parent="i3I4o2aXOtXIeuuRk1Ph-128">
          <mxGeometry y="86" width="180" height="26" as="geometry" />
        </mxCell>
        <mxCell id="i3I4o2aXOtXIeuuRk1Ph-134" value="+&amp;nbsp;EnterForget&lt;span style=&quot;font-size: 11px; text-align: center; background-color: initial;&quot;&gt;PasswordSystem()&lt;/span&gt;" style="text;strokeColor=none;fillColor=none;align=left;verticalAlign=top;spacingLeft=4;spacingRight=4;overflow=hidden;rotatable=0;points=[[0,0.5],[1,0.5]];portConstraint=eastwest;whiteSpace=wrap;html=1;" vertex="1" parent="i3I4o2aXOtXIeuuRk1Ph-128">
          <mxGeometry y="112" width="180" height="26" as="geometry" />
        </mxCell>
        <mxCell id="i3I4o2aXOtXIeuuRk1Ph-135" value="+ EnterModifySystem()" style="text;strokeColor=none;fillColor=none;align=left;verticalAlign=top;spacingLeft=4;spacingRight=4;overflow=hidden;rotatable=0;points=[[0,0.5],[1,0.5]];portConstraint=eastwest;whiteSpace=wrap;html=1;" vertex="1" parent="i3I4o2aXOtXIeuuRk1Ph-128">
          <mxGeometry y="138" width="180" height="26" as="geometry" />
        </mxCell>
        <mxCell id="i3I4o2aXOtXIeuuRk1Ph-133" value="+&amp;nbsp;EnterSearchPage()" style="text;strokeColor=none;fillColor=none;align=left;verticalAlign=top;spacingLeft=4;spacingRight=4;overflow=hidden;rotatable=0;points=[[0,0.5],[1,0.5]];portConstraint=eastwest;whiteSpace=wrap;html=1;" vertex="1" parent="i3I4o2aXOtXIeuuRk1Ph-128">
          <mxGeometry y="164" width="180" height="26" as="geometry" />
        </mxCell>
        <mxCell id="i3I4o2aXOtXIeuuRk1Ph-136" value="+ EnterKeepSystem()" style="text;strokeColor=none;fillColor=none;align=left;verticalAlign=top;spacingLeft=4;spacingRight=4;overflow=hidden;rotatable=0;points=[[0,0.5],[1,0.5]];portConstraint=eastwest;whiteSpace=wrap;html=1;" vertex="1" parent="i3I4o2aXOtXIeuuRk1Ph-128">
          <mxGeometry y="190" width="180" height="26" as="geometry" />
        </mxCell>
        <mxCell id="i3I4o2aXOtXIeuuRk1Ph-137" value="+&amp;nbsp;EnterRentSystem()" style="text;strokeColor=none;fillColor=none;align=left;verticalAlign=top;spacingLeft=4;spacingRight=4;overflow=hidden;rotatable=0;points=[[0,0.5],[1,0.5]];portConstraint=eastwest;whiteSpace=wrap;html=1;" vertex="1" parent="i3I4o2aXOtXIeuuRk1Ph-128">
          <mxGeometry y="216" width="180" height="26" as="geometry" />
        </mxCell>
        <mxCell id="i3I4o2aXOtXIeuuRk1Ph-149" style="edgeStyle=orthogonalEdgeStyle;rounded=0;orthogonalLoop=1;jettySize=auto;html=1;" edge="1" parent="WIyWlLk6GJQsqaUBKTNV-1" source="i3I4o2aXOtXIeuuRk1Ph-89" target="i3I4o2aXOtXIeuuRk1Ph-93">
          <mxGeometry relative="1" as="geometry" />
        </mxCell>
        <mxCell id="i3I4o2aXOtXIeuuRk1Ph-89" value="出租介面" style="swimlane;fontStyle=1;align=center;verticalAlign=top;childLayout=stackLayout;horizontal=1;startSize=26;horizontalStack=0;resizeParent=1;resizeParentMax=0;resizeLast=0;collapsible=1;marginBottom=0;whiteSpace=wrap;html=1;" vertex="1" parent="WIyWlLk6GJQsqaUBKTNV-1">
          <mxGeometry x="1090" y="-240" width="120" height="82" as="geometry" />
        </mxCell>
        <mxCell id="i3I4o2aXOtXIeuuRk1Ph-90" value="　" style="text;strokeColor=none;fillColor=none;align=left;verticalAlign=top;spacingLeft=4;spacingRight=4;overflow=hidden;rotatable=0;points=[[0,0.5],[1,0.5]];portConstraint=eastwest;whiteSpace=wrap;html=1;" vertex="1" parent="i3I4o2aXOtXIeuuRk1Ph-89">
          <mxGeometry y="26" width="120" height="22" as="geometry" />
        </mxCell>
        <mxCell id="i3I4o2aXOtXIeuuRk1Ph-91" value="" style="line;strokeWidth=1;fillColor=none;align=left;verticalAlign=middle;spacingTop=-1;spacingLeft=3;spacingRight=3;rotatable=0;labelPosition=right;points=[];portConstraint=eastwest;strokeColor=inherit;" vertex="1" parent="i3I4o2aXOtXIeuuRk1Ph-89">
          <mxGeometry y="48" width="120" height="8" as="geometry" />
        </mxCell>
        <mxCell id="i3I4o2aXOtXIeuuRk1Ph-92" value="+&amp;nbsp;ClickRentButton()" style="text;strokeColor=none;fillColor=none;align=left;verticalAlign=top;spacingLeft=4;spacingRight=4;overflow=hidden;rotatable=0;points=[[0,0.5],[1,0.5]];portConstraint=eastwest;whiteSpace=wrap;html=1;" vertex="1" parent="i3I4o2aXOtXIeuuRk1Ph-89">
          <mxGeometry y="56" width="120" height="26" as="geometry" />
        </mxCell>
      </root>
    </mxGraphModel>
  </diagram>
</mxfile>
